<?xml version="1.0" encoding="UTF-8" standalone="no"?>
<!DOCTYPE svg PUBLIC "-//W3C//DTD SVG 1.1//EN"
 "http://www.w3.org/Graphics/SVG/1.1/DTD/svg11.dtd">
<!-- Generated by graphviz version 2.43.0 (0)
 -->
<!-- Title: G Pages: 1 -->
<svg width="677pt" height="1362pt"
 viewBox="0.00 0.00 676.50 1361.91" xmlns="http://www.w3.org/2000/svg" xmlns:xlink="http://www.w3.org/1999/xlink">
<g id="graph0" class="graph" transform="scale(1 1) rotate(0) translate(4 1357.91)">
<title>G</title>
<polygon fill="white" stroke="transparent" points="-4,4 -4,-1357.91 672.5,-1357.91 672.5,4 -4,4"/>
<!-- start -->
<g id="node1" class="node">
<title>start</title>
<ellipse fill="#e8f5e9" stroke="#2e7d32" cx="459.5" cy="-1305.82" rx="137.36" ry="48.17"/>
<text text-anchor="start" x="370.5" y="-1324.62" font-family="Helvetica,Arial,sans-serif" font-size="14.00" fill="#2e7d32">Setup:</text>
<text text-anchor="start" x="370.5" y="-1309.62" font-family="Helvetica,Arial,sans-serif" font-size="14.00" fill="#2e7d32">&#45; Configure Pin Modes</text>
<text text-anchor="start" x="370.5" y="-1294.62" font-family="Helvetica,Arial,sans-serif" font-size="14.00" fill="#2e7d32">&#45; Attach &amp; Center Servo (90°)</text>
<text text-anchor="middle" x="459.5" y="-1279.62" font-family="Helvetica,Arial,sans-serif" font-size="14.00" fill="#2e7d32">&#45; Start Serial</text>
</g>
<!-- loop_start -->
<g id="node2" class="node">
<title>loop_start</title>
<ellipse fill="#f3e5f5" stroke="#7b1fa2" cx="459.5" cy="-1193.87" rx="110.12" ry="26.74"/>
<text text-anchor="start" x="389.5" y="-1197.67" font-family="Helvetica,Arial,sans-serif" font-size="14.00" fill="#7b1fa2">Loop:</text>
<text text-anchor="middle" x="459.5" y="-1182.67" font-family="Helvetica,Arial,sans-serif" font-size="14.00" fill="#7b1fa2">Set forwardSpeed = 80</text>
</g>
<!-- start&#45;&gt;loop_start -->
<g id="edge1" class="edge">
<title>start&#45;&gt;loop_start</title>
<path fill="none" stroke="black" d="M459.5,-1257.56C459.5,-1248.72 459.5,-1239.6 459.5,-1231.16"/>
<polygon fill="black" stroke="black" points="463,-1230.89 459.5,-1220.89 456,-1230.89 463,-1230.89"/>
</g>
<!-- measure -->
<g id="node3" class="node">
<title>measure</title>
<path fill="#e1f5fe" stroke="#1f77b4" d="M407,-1130C407,-1130 270,-1130 270,-1130 264,-1130 258,-1124 258,-1118 258,-1118 258,-1104 258,-1104 258,-1098 264,-1092 270,-1092 270,-1092 407,-1092 407,-1092 413,-1092 419,-1098 419,-1104 419,-1104 419,-1118 419,-1118 419,-1124 413,-1130 407,-1130"/>
<text text-anchor="start" x="266" y="-1114.8" font-family="Helvetica,Arial,sans-serif" font-size="14.00" fill="#0288d1">Measure Front Distance</text>
<text text-anchor="middle" x="338.5" y="-1099.8" font-family="Helvetica,Arial,sans-serif" font-size="14.00" fill="#0288d1">(Ultrasonic Pulse)</text>
</g>
<!-- loop_start&#45;&gt;measure -->
<g id="edge2" class="edge">
<title>loop_start&#45;&gt;measure</title>
<path fill="none" stroke="black" d="M422.87,-1168.39C407.52,-1158.13 389.73,-1146.24 374.45,-1136.03"/>
<polygon fill="black" stroke="black" points="376.04,-1132.88 365.78,-1130.23 372.15,-1138.7 376.04,-1132.88"/>
</g>
<!-- check_valid -->
<g id="node12" class="node">
<title>check_valid</title>
<polygon fill="#fff3e0" stroke="#ff9800" points="301.5,-1055 171.8,-1037 301.5,-1019 431.2,-1037 301.5,-1055"/>
<text text-anchor="middle" x="301.5" y="-1033.3" font-family="Helvetica,Arial,sans-serif" font-size="14.00" fill="#e65100">Is frontDistance &gt; 0?</text>
</g>
<!-- measure&#45;&gt;check_valid -->
<g id="edge3" class="edge">
<title>measure&#45;&gt;check_valid</title>
<path fill="none" stroke="black" d="M329.16,-1091.83C324.67,-1083.08 319.21,-1072.46 314.33,-1062.96"/>
<polygon fill="black" stroke="black" points="317.38,-1061.25 309.7,-1053.96 311.16,-1064.45 317.38,-1061.25"/>
</g>
<!-- stop_back_stop -->
<g id="node4" class="node">
<title>stop_back_stop</title>
<path fill="#e1f5fe" stroke="#1f77b4" d="M286,-826C286,-826 113,-826 113,-826 107,-826 101,-820 101,-814 101,-814 101,-785 101,-785 101,-779 107,-773 113,-773 113,-773 286,-773 286,-773 292,-773 298,-779 298,-785 298,-785 298,-814 298,-814 298,-820 292,-826 286,-826"/>
<text text-anchor="start" x="109" y="-810.8" font-family="Helvetica,Arial,sans-serif" font-size="14.00" fill="#0288d1">1. Stop Robot</text>
<text text-anchor="start" x="109" y="-795.8" font-family="Helvetica,Arial,sans-serif" font-size="14.00" fill="#0288d1">2. Move Backward (speed 70)</text>
<text text-anchor="middle" x="199.5" y="-780.8" font-family="Helvetica,Arial,sans-serif" font-size="14.00" fill="#0288d1">3. Stop Robot</text>
</g>
<!-- look_left -->
<g id="node5" class="node">
<title>look_left</title>
<path fill="#e1f5fe" stroke="#1f77b4" d="M269.5,-736C269.5,-736 125.5,-736 125.5,-736 119.5,-736 113.5,-730 113.5,-724 113.5,-724 113.5,-710 113.5,-710 113.5,-704 119.5,-698 125.5,-698 125.5,-698 269.5,-698 269.5,-698 275.5,-698 281.5,-704 281.5,-710 281.5,-710 281.5,-724 281.5,-724 281.5,-730 275.5,-736 269.5,-736"/>
<text text-anchor="start" x="121.5" y="-720.8" font-family="Helvetica,Arial,sans-serif" font-size="14.00" fill="#0288d1">1. Turn Radar Left (0°)</text>
<text text-anchor="middle" x="197.5" y="-705.8" font-family="Helvetica,Arial,sans-serif" font-size="14.00" fill="#0288d1">2. Measure Left Distance</text>
</g>
<!-- stop_back_stop&#45;&gt;look_left -->
<g id="edge8" class="edge">
<title>stop_back_stop&#45;&gt;look_left</title>
<path fill="none" stroke="black" d="M198.86,-772.59C198.65,-764.31 198.42,-755.11 198.21,-746.65"/>
<polygon fill="black" stroke="black" points="201.71,-746.38 197.96,-736.47 194.71,-746.55 201.71,-746.38"/>
</g>
<!-- look_right -->
<g id="node6" class="node">
<title>look_right</title>
<path fill="#e1f5fe" stroke="#1f77b4" d="M291,-647C291,-647 94,-647 94,-647 88,-647 82,-641 82,-635 82,-635 82,-606 82,-606 82,-600 88,-594 94,-594 94,-594 291,-594 291,-594 297,-594 303,-600 303,-606 303,-606 303,-635 303,-635 303,-641 297,-647 291,-647"/>
<text text-anchor="start" x="90" y="-631.8" font-family="Helvetica,Arial,sans-serif" font-size="14.00" fill="#0288d1">1. Sweep Radar Right (0° to 180°)</text>
<text text-anchor="start" x="90" y="-616.8" font-family="Helvetica,Arial,sans-serif" font-size="14.00" fill="#0288d1">2. Blink Built&#45;in LED</text>
<text text-anchor="middle" x="192.5" y="-601.8" font-family="Helvetica,Arial,sans-serif" font-size="14.00" fill="#0288d1">3. Measure Right Distance</text>
</g>
<!-- look_left&#45;&gt;look_right -->
<g id="edge9" class="edge">
<title>look_left&#45;&gt;look_right</title>
<path fill="none" stroke="black" d="M196.54,-697.78C195.93,-686.33 195.13,-671.16 194.4,-657.36"/>
<polygon fill="black" stroke="black" points="197.88,-656.97 193.86,-647.17 190.89,-657.34 197.88,-656.97"/>
</g>
<!-- center_servo -->
<g id="node7" class="node">
<title>center_servo</title>
<path fill="#e1f5fe" stroke="#1f77b4" d="M261.5,-543C261.5,-543 115.5,-543 115.5,-543 109.5,-543 103.5,-537 103.5,-531 103.5,-531 103.5,-519 103.5,-519 103.5,-513 109.5,-507 115.5,-507 115.5,-507 261.5,-507 261.5,-507 267.5,-507 273.5,-513 273.5,-519 273.5,-519 273.5,-531 273.5,-531 273.5,-537 267.5,-543 261.5,-543"/>
<text text-anchor="middle" x="188.5" y="-521.3" font-family="Helvetica,Arial,sans-serif" font-size="14.00" fill="#0288d1">Center Radar Servo (90°)</text>
</g>
<!-- look_right&#45;&gt;center_servo -->
<g id="edge10" class="edge">
<title>look_right&#45;&gt;center_servo</title>
<path fill="none" stroke="black" d="M191.41,-593.95C190.87,-581.36 190.22,-566.17 189.67,-553.35"/>
<polygon fill="black" stroke="black" points="193.16,-553.09 189.24,-543.24 186.17,-553.39 193.16,-553.09"/>
</g>
<!-- check_dir -->
<g id="node14" class="node">
<title>check_dir</title>
<polygon fill="#fff3e0" stroke="#ff9800" points="181.5,-470 58.5,-432 181.5,-394 304.5,-432 181.5,-470"/>
<text text-anchor="start" x="82.98" y="-435.8" font-family="Helvetica,Arial,sans-serif" font-size="14.00" fill="#e65100">Is Left Distance </text>
<text text-anchor="middle" x="181.5" y="-420.8" font-family="Helvetica,Arial,sans-serif" font-size="14.00" fill="#e65100">&gt; Right Distance?</text>
</g>
<!-- center_servo&#45;&gt;check_dir -->
<g id="edge11" class="edge">
<title>center_servo&#45;&gt;check_dir</title>
<path fill="none" stroke="black" d="M187.18,-506.88C186.58,-499.01 185.83,-489.25 185.07,-479.44"/>
<polygon fill="black" stroke="black" points="188.55,-478.96 184.29,-469.26 181.57,-479.5 188.55,-478.96"/>
</g>
<!-- t_left -->
<g id="node8" class="node">
<title>t_left</title>
<path fill="#e1f5fe" stroke="#1f77b4" d="M292,-343C292,-343 177,-343 177,-343 171,-343 165,-337 165,-331 165,-331 165,-317 165,-317 165,-311 171,-305 177,-305 177,-305 292,-305 292,-305 298,-305 304,-311 304,-317 304,-317 304,-331 304,-331 304,-337 298,-343 292,-343"/>
<text text-anchor="start" x="173" y="-327.8" font-family="Helvetica,Arial,sans-serif" font-size="14.00" fill="#0288d1">Turn Left (speed 75)</text>
<text text-anchor="middle" x="234.5" y="-312.8" font-family="Helvetica,Arial,sans-serif" font-size="14.00" fill="#0288d1">for 800ms</text>
</g>
<!-- stop_final -->
<g id="node10" class="node">
<title>stop_final</title>
<path fill="#e1f5fe" stroke="#1f77b4" d="M264.5,-268C264.5,-268 204.5,-268 204.5,-268 198.5,-268 192.5,-262 192.5,-256 192.5,-256 192.5,-242 192.5,-242 192.5,-236 198.5,-230 204.5,-230 204.5,-230 264.5,-230 264.5,-230 270.5,-230 276.5,-236 276.5,-242 276.5,-242 276.5,-256 276.5,-256 276.5,-262 270.5,-268 264.5,-268"/>
<text text-anchor="start" x="200.5" y="-252.8" font-family="Helvetica,Arial,sans-serif" font-size="14.00" fill="#0288d1">Stop Robot</text>
<text text-anchor="middle" x="234.5" y="-237.8" font-family="Helvetica,Arial,sans-serif" font-size="14.00" fill="#0288d1">for 200ms</text>
</g>
<!-- t_left&#45;&gt;stop_final -->
<g id="edge14" class="edge">
<title>t_left&#45;&gt;stop_final</title>
<path fill="none" stroke="black" d="M234.5,-304.96C234.5,-296.88 234.5,-287.18 234.5,-278.18"/>
<polygon fill="black" stroke="black" points="238,-278.09 234.5,-268.09 231,-278.09 238,-278.09"/>
</g>
<!-- t_right -->
<g id="node9" class="node">
<title>t_right</title>
<path fill="#e1f5fe" stroke="#1f77b4" d="M135,-343C135,-343 12,-343 12,-343 6,-343 0,-337 0,-331 0,-331 0,-317 0,-317 0,-311 6,-305 12,-305 12,-305 135,-305 135,-305 141,-305 147,-311 147,-317 147,-317 147,-331 147,-331 147,-337 141,-343 135,-343"/>
<text text-anchor="start" x="8" y="-327.8" font-family="Helvetica,Arial,sans-serif" font-size="14.00" fill="#0288d1">Turn Right (speed 75)</text>
<text text-anchor="middle" x="73.5" y="-312.8" font-family="Helvetica,Arial,sans-serif" font-size="14.00" fill="#0288d1">for 800ms</text>
</g>
<!-- t_right&#45;&gt;stop_final -->
<g id="edge15" class="edge">
<title>t_right&#45;&gt;stop_final</title>
<path fill="none" stroke="black" d="M113.3,-304.96C135.07,-295.08 162.23,-282.77 185.32,-272.3"/>
<polygon fill="black" stroke="black" points="186.94,-275.41 194.6,-268.09 184.05,-269.03 186.94,-275.41"/>
</g>
<!-- check_speed -->
<g id="node15" class="node">
<title>check_speed</title>
<polygon fill="#fff3e0" stroke="#ff9800" points="332.5,-193 176.5,-140 332.5,-87 488.5,-140 332.5,-193"/>
<text text-anchor="start" x="205.4" y="-151.3" font-family="Helvetica,Arial,sans-serif" font-size="14.00" fill="#e65100">Is frontDistance &gt; 25</text>
<text text-anchor="start" x="205.4" y="-136.3" font-family="Helvetica,Arial,sans-serif" font-size="14.00" fill="#e65100">AND forwardSpeed</text>
<text text-anchor="middle" x="332.5" y="-121.3" font-family="Helvetica,Arial,sans-serif" font-size="14.00" fill="#e65100">!= currentMotorSpeed?</text>
</g>
<!-- stop_final&#45;&gt;check_speed -->
<g id="edge16" class="edge">
<title>stop_final&#45;&gt;check_speed</title>
<path fill="none" stroke="black" d="M251.12,-229.85C261.54,-218.48 275.49,-203.24 288.9,-188.61"/>
<polygon fill="black" stroke="black" points="291.66,-190.77 295.83,-181.03 286.5,-186.04 291.66,-190.77"/>
</g>
<!-- move_fwd -->
<g id="node11" class="node">
<title>move_fwd</title>
<path fill="#e1f5fe" stroke="#1f77b4" d="M499,-36C499,-36 350,-36 350,-36 344,-36 338,-30 338,-24 338,-24 338,-12 338,-12 338,-6 344,0 350,0 350,0 499,0 499,0 505,0 511,-6 511,-12 511,-12 511,-24 511,-24 511,-30 505,-36 499,-36"/>
<text text-anchor="middle" x="424.5" y="-14.3" font-family="Helvetica,Arial,sans-serif" font-size="14.00" fill="#0288d1">Move Forward (speed 80)</text>
</g>
<!-- move_fwd&#45;&gt;loop_start -->
<g id="edge19" class="edge">
<title>move_fwd&#45;&gt;loop_start</title>
<path fill="none" stroke="black" d="M449.64,-36.16C476.88,-57 516.5,-94.9 516.5,-139 516.5,-1112 516.5,-1112 516.5,-1112 516.5,-1129.95 507,-1146.72 495.76,-1160.28"/>
<polygon fill="black" stroke="black" points="493.03,-1158.08 489,-1167.88 498.26,-1162.74 493.03,-1158.08"/>
</g>
<!-- check_safe -->
<g id="node13" class="node">
<title>check_safe</title>
<polygon fill="#fff3e0" stroke="#ff9800" points="199.5,-968 24.5,-930 199.5,-892 374.5,-930 199.5,-968"/>
<text text-anchor="start" x="55.95" y="-933.8" font-family="Helvetica,Arial,sans-serif" font-size="14.00" fill="#e65100">Is frontDistance </text>
<text text-anchor="middle" x="199.5" y="-918.8" font-family="Helvetica,Arial,sans-serif" font-size="14.00" fill="#e65100">&lt;= minSafeDistance (25)?</text>
</g>
<!-- check_valid&#45;&gt;check_safe -->
<g id="edge4" class="edge">
<title>check_valid&#45;&gt;check_safe</title>
<path fill="none" stroke="black" d="M286.89,-1020.96C273.78,-1007.46 253.97,-987.07 236.53,-969.12"/>
<polygon fill="black" stroke="black" points="238.7,-966.33 229.23,-961.6 233.68,-971.21 238.7,-966.33"/>
<text text-anchor="middle" x="277" y="-989.8" font-family="Helvetica,Arial,sans-serif" font-size="14.00">Yes</text>
</g>
<!-- check_valid&#45;&gt;check_speed -->
<g id="edge5" class="edge">
<title>check_valid&#45;&gt;check_speed</title>
<path fill="none" stroke="black" d="M328.57,-1022.67C358.48,-1005.81 402.5,-973.75 402.5,-931 402.5,-931 402.5,-931 402.5,-248 402.5,-226.06 392.07,-205.12 379.26,-187.66"/>
<polygon fill="black" stroke="black" points="381.72,-185.13 372.81,-179.39 376.2,-189.43 381.72,-185.13"/>
<text text-anchor="middle" x="412" y="-564.8" font-family="Helvetica,Arial,sans-serif" font-size="14.00">No</text>
</g>
<!-- check_safe&#45;&gt;stop_back_stop -->
<g id="edge6" class="edge">
<title>check_safe&#45;&gt;stop_back_stop</title>
<path fill="none" stroke="black" d="M199.5,-891.83C199.5,-874.4 199.5,-853.71 199.5,-836.44"/>
<polygon fill="black" stroke="black" points="203,-836.18 199.5,-826.18 196,-836.18 203,-836.18"/>
<text text-anchor="middle" x="231.5" y="-862.8" font-family="Helvetica,Arial,sans-serif" font-size="14.00">Yes</text>
<text text-anchor="middle" x="231.5" y="-847.8" font-family="Helvetica,Arial,sans-serif" font-size="14.00">(Obstacle)</text>
</g>
<!-- check_safe&#45;&gt;check_speed -->
<g id="edge7" class="edge">
<title>check_safe&#45;&gt;check_speed</title>
<path fill="none" stroke="black" d="M253.21,-903.51C290.13,-881.85 332.5,-846.89 332.5,-800.5 332.5,-800.5 332.5,-800.5 332.5,-248 332.5,-233.65 332.5,-218.22 332.5,-203.66"/>
<polygon fill="black" stroke="black" points="336,-203.25 332.5,-193.25 329,-203.25 336,-203.25"/>
<text text-anchor="middle" x="353.5" y="-528.8" font-family="Helvetica,Arial,sans-serif" font-size="14.00">No</text>
<text text-anchor="middle" x="353.5" y="-513.8" font-family="Helvetica,Arial,sans-serif" font-size="14.00">(Clear)</text>
</g>
<!-- check_dir&#45;&gt;t_left -->
<g id="edge12" class="edge">
<title>check_dir&#45;&gt;t_left</title>
<path fill="none" stroke="black" d="M197.55,-398.91C204.97,-384.06 213.7,-366.59 220.81,-352.37"/>
<polygon fill="black" stroke="black" points="224.1,-353.63 225.44,-343.12 217.84,-350.5 224.1,-353.63"/>
<text text-anchor="middle" x="227" y="-364.8" font-family="Helvetica,Arial,sans-serif" font-size="14.00">Yes</text>
</g>
<!-- check_dir&#45;&gt;t_right -->
<g id="edge13" class="edge">
<title>check_dir&#45;&gt;t_right</title>
<path fill="none" stroke="black" d="M152.56,-402.59C136.02,-386.36 115.45,-366.18 99.44,-350.46"/>
<polygon fill="black" stroke="black" points="101.57,-347.65 91.99,-343.14 96.67,-352.65 101.57,-347.65"/>
<text text-anchor="middle" x="133" y="-364.8" font-family="Helvetica,Arial,sans-serif" font-size="14.00">No</text>
</g>
<!-- check_speed&#45;&gt;loop_start -->
<g id="edge18" class="edge">
<title>check_speed&#45;&gt;loop_start</title>
<path fill="none" stroke="black" d="M401.2,-169.78C431.13,-187.3 459.5,-213.11 459.5,-248 459.5,-1112 459.5,-1112 459.5,-1112 459.5,-1126.54 459.5,-1142.56 459.5,-1156.48"/>
<polygon fill="black" stroke="black" points="456,-1156.65 459.5,-1166.65 463,-1156.65 456,-1156.65"/>
<text text-anchor="middle" x="469" y="-668.8" font-family="Helvetica,Arial,sans-serif" font-size="14.00">No</text>
</g>
<!-- check_speed&#45;&gt;move_fwd -->
<g id="edge17" class="edge">
<title>check_speed&#45;&gt;move_fwd</title>
<path fill="none" stroke="black" d="M364.16,-97.7C377.76,-79.97 393.21,-59.82 405.07,-44.34"/>
<polygon fill="black" stroke="black" points="407.95,-46.34 411.26,-36.27 402.4,-42.08 407.95,-46.34"/>
<text text-anchor="middle" x="408" y="-57.8" font-family="Helvetica,Arial,sans-serif" font-size="14.00">Yes</text>
</g>
<!-- f -->
<g id="node16" class="node">
<title>f</title>
<polygon fill="#fff3e0" stroke="#ff9800" points="641.5,-1323.82 614.5,-1305.82 641.5,-1287.82 668.5,-1305.82 641.5,-1323.82"/>
<text text-anchor="middle" x="641.5" y="-1302.12" font-family="Helvetica,Arial,sans-serif" font-size="14.00" fill="#e65100">f</text>
</g>
</g>
</svg>
